<svg xmlns="http://www.w3.org/2000/svg" xmlns:xlink="http://www.w3.org/1999/xlink" viewBox="0,0,256,256" width="50px" height="50px" fill-rule="nonzero"><g fill="#ffffff" fill-rule="nonzero" stroke="none" stroke-width="1" stroke-linecap="butt" stroke-linejoin="miter" stroke-miterlimit="10" stroke-dasharray="" stroke-dashoffset="0" font-family="none" font-weight="none" font-size="none" text-anchor="none" style="mix-blend-mode: normal"><g transform="scale(5.12,5.12)"><path d="M9,4c-2.76,0 -5,2.24 -5,5v32c0,2.76 2.24,5 5,5h32c2.76,0 5,-2.24 5,-5v-32c0,-2.76 -2.24,-5 -5,-5zM17.16992,7.7793c0.38,0 0.74016,0.21031 0.91016,0.57031c0.07,0.14 0.09961,0.28969 0.09961,0.42969c0,0.37 -0.21031,0.73039 -0.57031,0.90039c-0.14,0.07 -0.28969,0.09961 -0.42969,0.09961c-0.37,0 -0.73039,-0.19859 -0.90039,-0.55859c-0.24,-0.5 -0.03906,-1.09984 0.46094,-1.33984c0.14,-0.07 0.28969,-0.10156 0.42969,-0.10156zM32.83008,7.7793c0.14,0 0.28969,0.03156 0.42969,0.10156c0.36,0.17 0.56055,0.52844 0.56055,0.89844c0,0.15 -0.02961,0.30141 -0.09961,0.44141c-0.17,0.36 -0.53039,0.55859 -0.90039,0.55859c-0.14,0 -0.28969,-0.02961 -0.42969,-0.09961c-0.36,-0.17 -0.57031,-0.53039 -0.57031,-0.90039c0,-0.14 0.02961,-0.28969 0.09961,-0.42969c0.17,-0.36 0.53016,-0.57031 0.91016,-0.57031zM13.76953,9.92969c0.29,0 0.58125,0.13086 0.78125,0.38086c0.15,0.18 0.21875,0.39914 0.21875,0.61914c0,0.3 -0.12891,0.59125 -0.37891,0.78125c-0.18,0.15 -0.40109,0.21875 -0.62109,0.21875c-0.29,0 -0.5793,-0.12914 -0.7793,-0.36914c-0.35,-0.44 -0.27961,-1.06016 0.15039,-1.41016c0.19,-0.15 0.40891,-0.2207 0.62891,-0.2207zM36.23047,9.92969c0.22,0 0.43891,0.0707 0.62891,0.2207c0.25,0.2 0.37109,0.4893 0.37109,0.7793c0,0.22 -0.0707,0.44086 -0.2207,0.63086c-0.2,0.24 -0.4893,0.36914 -0.7793,0.36914c-0.22,0 -0.44109,-0.06875 -0.62109,-0.21875c-0.25,-0.19 -0.37891,-0.48125 -0.37891,-0.78125c0,-0.22 0.06875,-0.43914 0.21875,-0.61914c0.2,-0.25 0.49125,-0.38086 0.78125,-0.38086zM25,10c8.27,0 15,6.73 15,15c0,8.27 -6.73,15 -15,15c-8.27,0 -15,-6.73 -15,-15c0,-8.27 6.73,-15 15,-15zM10.91992,12.7793c0.22,0 0.44086,0.0707 0.63086,0.2207c0.25,0.2 0.37891,0.4893 0.37891,0.7793c0,0.22 -0.07875,0.44109 -0.21875,0.62109c-0.2,0.25 -0.49102,0.37891 -0.79102,0.37891c-0.22,0 -0.43914,-0.06875 -0.61914,-0.21875c-0.43,-0.34 -0.50016,-0.97039 -0.16016,-1.40039c0.2,-0.25 0.4893,-0.38086 0.7793,-0.38086zM39.08008,12.7793c0.29,0 0.5793,0.13086 0.7793,0.38086c0.14,0.18 0.2207,0.39914 0.2207,0.61914c0,0.29 -0.13086,0.58125 -0.38086,0.78125c-0.18,0.15 -0.39914,0.21875 -0.61914,0.21875c-0.3,0 -0.59101,-0.12891 -0.79102,-0.37891c-0.14,-0.18 -0.21875,-0.40109 -0.21875,-0.62109c0,-0.29 0.12891,-0.5793 0.37891,-0.7793c0.19,-0.15 0.41086,-0.2207 0.63086,-0.2207zM24.64648,16.00195c-0.95758,-0.06371 -1.83453,0.51469 -2.17578,1.39844l-5.08984,13.58984c-0.18,0.49 0.17922,1.00977 0.69922,1.00977h1.45898c0.145,0 0.28656,-0.0318 0.41406,-0.0918c0.1275,-0.06 0.24094,-0.14781 0.33594,-0.25781c1.75,-2 4.35063,-3.58117 6.64063,-4.70117l1.82031,4.43164c0.1125,0.2775 0.34906,0.48656 0.62891,0.57422c0.09328,0.02922 0.19102,0.04492 0.29102,0.04492h1.25c0.13,0 0.24945,-0.03344 0.35352,-0.08984c0.31219,-0.16922 0.4807,-0.55242 0.3457,-0.91992l-1.96875,-5.24023c1.3,-0.52 2.18875,-0.78906 2.21875,-0.78906c0.8,-0.21 1.29008,-1.02008 1.08008,-1.83008c-0.2,-0.8 -1.00859,-1.2818 -1.80859,-1.0918c-0.12,0.03 -1.13031,0.30031 -2.57031,0.82031l-2.00977,-5.34961c-0.25,-0.69 -0.79,-1.24945 -1.5,-1.43945c-0.13875,-0.03625 -0.27727,-0.05926 -0.41406,-0.06836zM8.7793,16.18945c0.14,0 0.29164,0.02961 0.43164,0.09961c0.36,0.17 0.56836,0.53016 0.56836,0.91016c0,0.14 -0.02961,0.29164 -0.09961,0.43164c-0.17,0.35 -0.53039,0.55859 -0.90039,0.55859c-0.15,0 -0.29945,-0.02961 -0.43945,-0.09961c-0.5,-0.24 -0.69898,-0.84008 -0.45898,-1.33008c0.17,-0.36 0.52844,-0.57031 0.89844,-0.57031zM41.2207,16.18945c0.37,0 0.72844,0.21031 0.89844,0.57031c0.07,0.14 0.10156,0.28945 0.10156,0.43945c0,0.36 -0.20055,0.72063 -0.56055,0.89063c-0.14,0.07 -0.28945,0.09961 -0.43945,0.09961c-0.37,0 -0.73039,-0.20859 -0.90039,-0.55859c-0.07,-0.14 -0.09961,-0.29164 -0.09961,-0.43164c0,-0.38 0.20836,-0.74016 0.56836,-0.91016c0.14,-0.07 0.29164,-0.09961 0.43164,-0.09961zM24.5,22.03906c0.24,0 0.47984,0.13062 0.58984,0.39063l0.66016,1.62109c-0.525,0.25 -1.06563,0.52633 -1.60937,0.83008c-0.54375,0.30375 -1.09086,0.63328 -1.63086,0.98828l1.40039,-3.43945c0.11,-0.26 0.34984,-0.39063 0.58984,-0.39063zM8.7793,31.81055c0.37,0 0.73039,0.20859 0.90039,0.55859c0.07,0.14 0.09961,0.29164 0.09961,0.43164c0,0.38 -0.20836,0.74016 -0.56836,0.91016c-0.14,0.07 -0.29164,0.09961 -0.43164,0.09961c-0.37,0 -0.72844,-0.21031 -0.89844,-0.57031c-0.07,-0.14 -0.10156,-0.28945 -0.10156,-0.43945c0,-0.36 0.20055,-0.72062 0.56055,-0.89062c0.14,-0.07 0.28945,-0.09961 0.43945,-0.09961zM41.2207,31.81055c0.15,0 0.29945,0.02961 0.43945,0.09961c0.5,0.24 0.69899,0.84008 0.45898,1.33008c-0.17,0.36 -0.52844,0.57031 -0.89844,0.57031c-0.14,0 -0.29164,-0.02961 -0.43164,-0.09961c-0.36,-0.17 -0.56836,-0.53016 -0.56836,-0.91016c0,-0.14 0.02961,-0.29164 0.09961,-0.43164c0.17,-0.35 0.53039,-0.55859 0.90039,-0.55859zM10.91992,35.2207c0.3,0 0.59102,0.12891 0.79102,0.37891c0.14,0.18 0.21875,0.40109 0.21875,0.62109c0,0.29 -0.12891,0.5793 -0.37891,0.7793c-0.19,0.15 -0.41086,0.2207 -0.63086,0.2207c-0.29,0 -0.5793,-0.13086 -0.7793,-0.38086c-0.14,-0.18 -0.2207,-0.39914 -0.2207,-0.61914c0,-0.29 0.13086,-0.58125 0.38086,-0.78125c0.18,-0.15 0.39914,-0.21875 0.61914,-0.21875zM39.08008,35.2207c0.22,0 0.43914,0.06875 0.61914,0.21875c0.43,0.34 0.50016,0.97039 0.16016,1.40039c-0.2,0.25 -0.4893,0.38086 -0.7793,0.38086c-0.22,0 -0.44086,-0.0707 -0.63086,-0.2207c-0.25,-0.2 -0.37891,-0.4893 -0.37891,-0.7793c0,-0.22 0.07875,-0.44109 0.21875,-0.62109c0.2,-0.25 0.49102,-0.37891 0.79102,-0.37891zM13.76953,38.07031c0.22,0 0.44109,0.06875 0.62109,0.21875c0.25,0.19 0.37891,0.48125 0.37891,0.78125c0,0.22 -0.06875,0.43914 -0.21875,0.61914c-0.2,0.25 -0.49125,0.38086 -0.78125,0.38086c-0.22,0 -0.43891,-0.0707 -0.62891,-0.2207c-0.25,-0.2 -0.37109,-0.4893 -0.37109,-0.7793c0,-0.22 0.0707,-0.44086 0.2207,-0.63086c0.2,-0.24 0.4893,-0.36914 0.7793,-0.36914zM36.23047,38.07031c0.29,0 0.5793,0.12914 0.7793,0.36914c0.35,0.44 0.27961,1.06016 -0.15039,1.41016c-0.19,0.15 -0.40891,0.2207 -0.62891,0.2207c-0.29,0 -0.58125,-0.13086 -0.78125,-0.38086c-0.15,-0.18 -0.21875,-0.39914 -0.21875,-0.61914c0,-0.3 0.12891,-0.59125 0.37891,-0.78125c0.18,-0.15 0.40109,-0.21875 0.62109,-0.21875zM17.17969,40.2207c0.14,0 0.28969,0.02961 0.42969,0.09961c0.36,0.17 0.57031,0.53039 0.57031,0.90039c0,0.14 -0.02961,0.28969 -0.09961,0.42969c-0.17,0.36 -0.53016,0.57031 -0.91016,0.57031c-0.14,0 -0.28969,-0.03156 -0.42969,-0.10156c-0.36,-0.17 -0.56055,-0.52844 -0.56055,-0.89844c0,-0.15 0.02961,-0.30141 0.09961,-0.44141c0.17,-0.36 0.53039,-0.55859 0.90039,-0.55859zM32.82031,40.2207c0.37,0 0.73039,0.19859 0.90039,0.55859c0.24,0.5 0.03906,1.09984 -0.46094,1.33984c-0.14,0.07 -0.28969,0.10156 -0.42969,0.10156c-0.38,0 -0.74016,-0.21031 -0.91016,-0.57031c-0.07,-0.14 -0.09961,-0.28969 -0.09961,-0.42969c0,-0.37 0.21031,-0.73039 0.57031,-0.90039c0.14,-0.07 0.28969,-0.09961 0.42969,-0.09961z"></path></g></g></svg>